<svg width="241" height="72" viewBox="0 0 241 72" fill="none" xmlns="http://www.w3.org/2000/svg">
<path d="M178.283 71.0939C177.852 71.4328 177.306 71.6685 176.645 71.8011C175.984 71.9337 175.279 72 174.532 72C173.627 72 172.779 71.8453 171.988 71.5359C171.198 71.2118 170.508 70.7256 169.919 70.0773C169.329 69.4291 168.862 68.6041 168.517 67.6022C168.172 66.5856 168 65.3849 168 64C168 62.5562 168.187 61.3333 168.561 60.3315C168.949 59.3149 169.452 58.4899 170.07 57.8564C170.702 57.2081 171.406 56.7366 172.182 56.442C172.958 56.1473 173.749 56 174.554 56C175.416 56 176.12 56.0516 176.666 56.1547C177.212 56.2431 177.679 56.3683 178.067 56.5304L177.636 58.1436C176.946 57.8048 175.962 57.6354 174.683 57.6354C174.094 57.6354 173.512 57.7459 172.937 57.9669C172.362 58.1878 171.844 58.5488 171.385 59.0497C170.939 59.5506 170.58 60.2063 170.307 61.0166C170.034 61.8269 169.897 62.8214 169.897 64C169.897 65.0608 170.026 65.989 170.285 66.7845C170.544 67.5801 170.896 68.2431 171.341 68.7735C171.801 69.3039 172.333 69.7017 172.937 69.9669C173.555 70.232 174.223 70.3646 174.942 70.3646C175.588 70.3646 176.149 70.2983 176.623 70.1657C177.112 70.0331 177.521 69.8637 177.852 69.6575L178.283 71.0939Z" fill="black"/>
<path d="M179.407 66.2099C179.407 64.3389 179.809 62.9098 180.614 61.9227C181.433 60.9208 182.605 60.4199 184.128 60.4199C184.933 60.4199 185.63 60.5599 186.219 60.8398C186.823 61.105 187.319 61.4954 187.707 62.011C188.095 62.512 188.382 63.1234 188.569 63.8453C188.756 64.5525 188.849 65.3407 188.849 66.2099C188.849 68.081 188.44 69.5175 187.62 70.5193C186.816 71.5064 185.651 72 184.128 72C183.323 72 182.619 71.8674 182.015 71.6022C181.426 71.3223 180.937 70.9319 180.549 70.4309C180.161 69.9153 179.874 69.3039 179.687 68.5967C179.5 67.8748 179.407 67.0792 179.407 66.2099ZM181.196 66.2099C181.196 66.7698 181.246 67.3076 181.347 67.8232C181.462 68.3389 181.635 68.7882 181.864 69.1713C182.094 69.5543 182.396 69.8637 182.77 70.0994C183.144 70.3352 183.596 70.453 184.128 70.453C186.083 70.4678 187.06 69.0534 187.06 66.2099C187.06 65.6354 187.002 65.0902 186.887 64.5746C186.787 64.0589 186.622 63.6096 186.392 63.2265C186.162 62.8435 185.86 62.5414 185.486 62.3204C185.113 62.0847 184.66 61.9669 184.128 61.9669C182.173 61.9521 181.196 63.3665 181.196 66.2099Z" fill="black"/>
<path d="M198.488 71.7348V65.4365C198.488 64.2873 198.323 63.4254 197.993 62.8508C197.676 62.2615 197.087 61.9669 196.225 61.9669C195.463 61.9669 194.831 62.1805 194.328 62.6077C193.839 63.0203 193.494 63.5433 193.293 64.1768V71.7348H191.568V60.6851H192.776L193.099 62.0331H193.185C193.53 61.5617 193.99 61.1786 194.565 60.884C195.154 60.5746 195.851 60.4199 196.656 60.4199C197.245 60.4199 197.763 60.4936 198.208 60.6409C198.654 60.7735 199.02 61.0166 199.308 61.3702C199.609 61.7238 199.832 62.2026 199.976 62.8066C200.134 63.3959 200.213 64.1473 200.213 65.0608V71.7348H198.488Z" fill="black"/>
<path d="M210.278 71.7348V65.4365C210.278 64.2873 210.112 63.4254 209.782 62.8508C209.466 62.2615 208.876 61.9669 208.014 61.9669C207.252 61.9669 206.62 62.1805 206.117 62.6077C205.628 63.0203 205.284 63.5433 205.082 64.1768V71.7348H203.358V60.6851H204.565L204.888 62.0331H204.975C205.319 61.5617 205.779 61.1786 206.354 60.884C206.943 60.5746 207.64 60.4199 208.445 60.4199C209.035 60.4199 209.552 60.4936 209.997 60.6409C210.443 60.7735 210.809 61.0166 211.097 61.3702C211.399 61.7238 211.621 62.2026 211.765 62.8066C211.923 63.3959 212.002 64.1473 212.002 65.0608V71.7348H210.278Z" fill="black"/>
<path d="M223.016 70.8508C222.584 71.2044 222.038 71.4843 221.377 71.6906C220.731 71.8969 220.041 72 219.308 72C218.489 72 217.777 71.8674 217.173 71.6022C216.57 71.3223 216.074 70.9319 215.686 70.4309C215.298 69.9153 215.011 69.3039 214.824 68.5967C214.637 67.8895 214.543 67.0939 214.543 66.2099C214.543 64.3241 214.953 62.8877 215.772 61.9006C216.591 60.9134 217.763 60.4199 219.286 60.4199C219.775 60.4199 220.263 60.4788 220.752 60.5967C221.241 60.6998 221.679 60.9061 222.067 61.2155C222.455 61.5249 222.771 61.9669 223.016 62.5414C223.26 63.1013 223.382 63.8453 223.382 64.7735C223.382 65.2597 223.339 65.7974 223.253 66.3867H216.333C216.333 67.035 216.397 67.6096 216.527 68.1105C216.656 68.6114 216.857 69.0387 217.13 69.3923C217.403 69.7311 217.756 69.9963 218.187 70.1878C218.632 70.3646 219.171 70.453 219.804 70.453C220.292 70.453 220.781 70.3646 221.269 70.1878C221.758 70.0111 222.125 69.8048 222.369 69.5691L223.016 70.8508ZM219.308 61.9669C218.46 61.9669 217.777 62.1952 217.26 62.6519C216.757 63.1087 216.455 63.8895 216.354 64.9945H221.701C221.701 63.8748 221.492 63.0939 221.075 62.6519C220.659 62.1952 220.069 61.9669 219.308 61.9669Z" fill="black"/>
<path d="M233.214 71.0055C232.783 71.3297 232.273 71.5727 231.683 71.7348C231.094 71.9116 230.476 72 229.829 72C228.996 72 228.292 71.8674 227.717 71.6022C227.142 71.3223 226.668 70.9319 226.294 70.4309C225.935 69.9153 225.669 69.3039 225.496 68.5967C225.338 67.8748 225.259 67.0792 225.259 66.2099C225.259 64.3389 225.662 62.9098 226.466 61.9227C227.271 60.9208 228.428 60.4199 229.937 60.4199C230.627 60.4199 231.209 60.4788 231.683 60.5967C232.172 60.6998 232.61 60.8545 232.998 61.0608L232.503 62.5856C232.172 62.3941 231.806 62.2468 231.403 62.1436C231.001 62.0258 230.57 61.9669 230.11 61.9669C228.069 61.9669 227.048 63.3812 227.048 66.2099C227.048 66.7698 227.099 67.3076 227.199 67.8232C227.314 68.3241 227.494 68.7735 227.738 69.1713C227.997 69.5543 228.328 69.8637 228.73 70.0994C229.147 70.3352 229.657 70.453 230.261 70.453C230.778 70.453 231.238 70.372 231.64 70.2099C232.057 70.0479 232.395 69.8637 232.653 69.6575L233.214 71.0055Z" fill="black"/>
<path d="M234.166 60.6851H235.848V58.4972L237.572 57.9889V60.6851H240.504V62.232H237.572V68.3536C237.572 69.1197 237.666 69.6648 237.853 69.989C238.039 70.2983 238.356 70.453 238.801 70.453C239.175 70.453 239.491 70.4162 239.75 70.3425C240.008 70.2541 240.296 70.1436 240.612 70.0111L241 71.3591C240.612 71.5506 240.188 71.7053 239.728 71.8232C239.268 71.9411 238.772 72 238.241 72C237.364 72 236.746 71.7495 236.387 71.2486C236.027 70.733 235.848 69.8785 235.848 68.6851V62.232H234.166V60.6851Z" fill="black"/>
<g clip-path="url(#clip0_5749_3539)">
<path d="M205.49 39.32V26.5H211.42C211.98 26.5 212.26 26.23 212.26 25.71V21.62C212.26 21.1 211.98 20.84 211.42 20.84H205.42L205.06 14.12C205.056 14.0156 205.031 13.9131 204.987 13.8189C204.942 13.7246 204.878 13.6406 204.799 13.5721C204.72 13.5036 204.628 13.4521 204.528 13.4207C204.429 13.3894 204.324 13.379 204.22 13.39H199.82C199.26 13.39 198.98 13.65 198.98 14.18V39.77C198.938 41.3942 199.213 43.0111 199.79 44.53C200.252 45.7283 200.986 46.8033 201.933 47.6708C202.88 48.5382 204.016 49.1746 205.25 49.53C206.576 49.9294 207.955 50.1282 209.34 50.12H210.77L212.31 50.04C212.429 50.0354 212.547 50.0054 212.653 49.9519C212.76 49.8985 212.855 49.8228 212.93 49.73C213.04 49.5531 213.095 49.348 213.09 49.14V44.86C213.09 44.34 212.79 44.08 212.2 44.08C211.61 44.08 211.32 44.15 210.91 44.16H209.91C209.306 44.1992 208.701 44.1068 208.137 43.8892C207.572 43.6717 207.061 43.3342 206.64 42.9C205.812 41.8865 205.401 40.5957 205.49 39.29V39.32ZM191.34 10.2C190.992 9.86385 190.58 9.60188 190.128 9.42997C189.676 9.25807 189.193 9.17983 188.71 9.20001C187.736 9.1718 186.79 9.53145 186.08 10.2C185.724 10.5369 185.444 10.9455 185.257 11.3989C185.071 11.8524 184.983 12.3401 185 12.83C184.993 13.3178 185.084 13.8019 185.268 14.2539C185.452 14.7058 185.724 15.1164 186.069 15.4613C186.414 15.8062 186.824 16.0785 187.276 16.2621C187.728 16.4456 188.212 16.5367 188.7 16.53C189.189 16.5478 189.676 16.4617 190.13 16.2772C190.583 16.0928 190.992 15.8142 191.33 15.46C191.999 14.7504 192.358 13.8045 192.33 12.83C192.35 12.3467 192.272 11.8644 192.1 11.4123C191.928 10.9602 191.666 10.5478 191.33 10.2H191.34ZM191.11 49.46C191.63 49.46 191.89 49.18 191.89 48.62V21.23C191.905 21.1241 191.895 21.0161 191.861 20.9146C191.827 20.8131 191.77 20.7209 191.695 20.6453C191.619 20.5696 191.527 20.5126 191.425 20.4787C191.324 20.4448 191.216 20.435 191.11 20.45H186.24C185.68 20.45 185.4 20.71 185.4 21.23V48.62C185.383 48.7342 185.393 48.8508 185.43 48.9604C185.466 49.07 185.527 49.1695 185.609 49.2512C185.69 49.3328 185.79 49.3942 185.9 49.4305C186.009 49.4667 186.126 49.4768 186.24 49.46H191.11ZM163 44C162.144 43.7373 161.332 43.3498 160.59 42.85V26.27C161.358 25.946 162.17 25.7403 163 25.66C163.945 25.5424 164.897 25.4856 165.85 25.49C167.547 25.3858 169.225 25.8932 170.58 26.92C171.72 27.8667 172.29 29.5533 172.29 31.98V38.26C172.363 39.111 172.254 39.9678 171.969 40.7732C171.685 41.5786 171.232 42.3139 170.64 42.93C169.322 43.9959 167.652 44.5277 165.96 44.42C164.944 44.4355 163.932 44.2939 162.96 44H163ZM154.05 22.69V59.26C154.033 59.3742 154.043 59.4908 154.08 59.6004C154.116 59.71 154.177 59.8095 154.259 59.8912C154.34 59.9728 154.44 60.0342 154.55 60.0705C154.659 60.1067 154.776 60.1168 154.89 60.1H159.71C159.824 60.1168 159.941 60.1067 160.05 60.0705C160.16 60.0342 160.26 59.9728 160.341 59.8912C160.423 59.8095 160.484 59.71 160.52 59.6004C160.557 59.4908 160.567 59.3742 160.55 59.26V48.9C161.443 49.283 162.371 49.581 163.32 49.79C164.357 50.0236 165.417 50.1377 166.48 50.13C168.184 50.1533 169.878 49.8687 171.48 49.29C172.931 48.7635 174.263 47.9546 175.4 46.91C176.523 45.8588 177.41 44.5805 178 43.16C178.636 41.5709 178.948 39.8712 178.92 38.16V32C178.958 30.1214 178.618 28.2544 177.92 26.51C177.321 25.0541 176.401 23.7518 175.23 22.7C174.042 21.6696 172.648 20.9058 171.14 20.46C169.478 19.9685 167.753 19.7259 166.02 19.74C164.085 19.7464 162.154 19.9237 160.25 20.27C158.361 20.5903 156.507 21.0857 154.71 21.75C154.52 21.8082 154.356 21.9287 154.243 22.0921C154.131 22.2555 154.077 22.4521 154.09 22.65L154.05 22.69ZM131.29 38C132.667 37.2231 134.244 36.8749 135.82 37C136.68 37 137.62 37 138.62 37.14C139.62 37.28 140.51 37.34 141.26 37.45V43.8C140.431 44.0129 139.589 44.1733 138.74 44.28C137.792 44.4064 136.836 44.4698 135.88 44.47C134.409 44.5227 132.947 44.2172 131.62 43.58C131.09 43.3213 130.648 42.912 130.349 42.4033C130.05 41.8946 129.908 41.3091 129.94 40.72C129.92 40.19 130.034 39.6635 130.269 39.1885C130.505 38.7134 130.856 38.3048 131.29 38ZM125.13 23.7L127.37 27.11C127.411 27.2161 127.478 27.3102 127.565 27.3836C127.652 27.4571 127.756 27.5075 127.867 27.5304C127.979 27.5533 128.094 27.5479 128.203 27.5146C128.312 27.4813 128.41 27.4213 128.49 27.34C129.49 26.7666 130.563 26.3326 131.68 26.05C132.984 25.6997 134.33 25.5281 135.68 25.54C137.77 25.54 139.22 25.98 140.04 26.86C140.98 28.1017 141.422 29.6494 141.28 31.2V32.26C140.42 32.15 139.5 32.05 138.53 31.96C137.583 31.8645 136.632 31.8177 135.68 31.82C134.022 31.8014 132.367 31.9793 130.75 32.35C129.355 32.6511 128.029 33.2107 126.84 34C125.769 34.7052 124.892 35.668 124.29 36.8C123.661 38.0374 123.352 39.4125 123.39 40.8C123.328 42.3358 123.673 43.8607 124.39 45.22C125.059 46.3955 126.011 47.3854 127.16 48.1C128.389 48.857 129.744 49.3887 131.16 49.67C132.705 49.9955 134.281 50.1564 135.86 50.15C137.904 50.1535 139.945 49.9829 141.96 49.64C143.704 49.3641 145.428 48.9732 147.12 48.47C147.314 48.3886 147.477 48.2482 147.587 48.0687C147.696 47.8891 147.746 47.6797 147.73 47.47V31.14C147.769 29.3961 147.484 27.6601 146.89 26.02C146.39 24.6699 145.574 23.4594 144.51 22.49C143.435 21.5698 142.178 20.8881 140.82 20.49C139.283 20.0277 137.685 19.8018 136.08 19.82C133.994 19.7955 131.915 20.058 129.9 20.6C128.193 21.0552 126.574 21.792 125.11 22.78C124.85 23.0067 124.85 23.34 125.11 23.78L125.13 23.7ZM112.11 32.78H100.54V31.2C100.54 29.15 101.1 27.68 102.2 26.8C103.378 25.9024 104.83 25.4396 106.31 25.49C107.772 25.4575 109.203 25.919 110.37 26.8C111.51 27.68 112.08 29.1467 112.08 31.2L112.11 32.78ZM118.44 31.38C118.501 29.571 118.159 27.771 117.44 26.11C116.816 24.7375 115.889 23.5239 114.73 22.56C113.589 21.6383 112.272 20.9579 110.86 20.56C109.405 20.1314 107.896 19.9159 106.38 19.92C104.854 19.918 103.335 20.1335 101.87 20.56C100.438 20.9619 99.0995 21.6414 97.93 22.56C96.7379 23.5141 95.7801 24.7284 95.13 26.11C94.374 27.7209 93.9879 29.4805 94 31.26V39.21C93.9473 40.8796 94.29 42.538 95 44.05C95.653 45.3677 96.5885 46.5252 97.74 47.44C98.9105 48.3454 100.24 49.0237 101.66 49.44C103.143 49.884 104.682 50.1097 106.23 50.11C108.389 50.1589 110.54 49.8202 112.58 49.11C114.388 48.4424 116.077 47.4867 117.58 46.28C118.07 45.91 118.13 45.52 117.75 45.11L115.5 42C115.445 41.9065 115.37 41.8264 115.28 41.7656C115.19 41.7048 115.088 41.6649 114.98 41.6486C114.873 41.6323 114.764 41.6401 114.66 41.6715C114.556 41.7029 114.46 41.757 114.38 41.83C113.32 42.5552 112.187 43.1685 111 43.66C109.569 44.1992 108.048 44.4573 106.52 44.42C104.978 44.4971 103.456 44.0417 102.21 43.13C101.654 42.658 101.216 42.0618 100.933 41.3895C100.65 40.7172 100.529 39.9877 100.58 39.26V37.7H117.58C118.14 37.7 118.42 37.43 118.42 36.91L118.44 31.38ZM74.35 15.63C76.96 15.63 78.9 16.16 80.15 17.23C81.4 18.3 82 20 82 22.24C82.0826 23.1603 81.9574 24.0873 81.6337 24.9527C81.3101 25.8181 80.7962 26.5998 80.13 27.24C78.88 28.3 76.94 28.83 74.33 28.83H67.33V15.63H74.35ZM89.35 49.46C89.4687 49.4709 89.5883 49.4508 89.6969 49.4017C89.8056 49.3527 89.8997 49.2763 89.97 49.18C90.08 48.99 90.04 48.75 89.85 48.45L79.62 34.11C82.3078 33.4884 84.7176 32.0024 86.48 29.88C88.1551 27.6711 89.0138 24.9503 88.91 22.18C88.91 18.18 87.64 15.0467 85.1 12.78C82.56 10.5133 78.9767 9.39334 74.35 9.42H61.35C60.83 9.42 60.57 9.7 60.57 10.26V48.62C60.57 49.18 60.83 49.46 61.35 49.46H66.5C67.02 49.46 67.29 49.18 67.29 48.62V34.84H72.29L82.09 48.9C82.1845 49.0802 82.3293 49.2291 82.5069 49.3285C82.6844 49.4279 82.887 49.4736 83.09 49.46H89.35Z" fill="black"/>
<path d="M33.03 49.4201L24.72 29.2101L4.54001 20.8101V49.4201H33.03Z" fill="#262F69"/>
<path d="M44.93 49.42V38.29V37.57L24.7 29.22L33.03 49.42H44.93Z" fill="#0061A8"/>
<path d="M4.54001 20.8101L24.7 29.2201L16.38 9.05005L4.54001 20.8101Z" fill="#7BC9EB"/>
<path d="M44.93 20.81L24.76 0.660034L21.63 3.78003L16.37 9.06004L24.7 29.22L44.93 37.57V20.81Z" fill="#23A4DE"/>
</g>
<defs>
<clipPath id="clip0_5749_3539">
<rect width="210" height="61" fill="white" transform="translate(4)"/>
</clipPath>
</defs>
</svg>
